<svg viewBox="0 0 12 20" fill="none" xmlns="http://www.w3.org/2000/svg">
<path fill-rule="evenodd" clip-rule="evenodd" d="M5.58762 19.487C5.69701 19.5964 5.84538 19.6579 6.00008 19.6579C6.15478 19.6579 6.30315 19.5964 6.41254 19.487L11.362 14.5375C11.4714 14.4282 11.5329 14.2798 11.5329 14.1251C11.5329 13.9704 11.4714 13.822 11.362 13.7126C11.2526 13.6032 11.1043 13.5418 10.9496 13.5418C10.7949 13.5418 10.6465 13.6032 10.5371 13.7126L6.5833 17.6664L6.58412 0.92646C6.58412 0.771563 6.52259 0.623011 6.41306 0.513482C6.30353 0.403954 6.15498 0.342421 6.00008 0.342421C5.84518 0.342421 5.69663 0.403954 5.5871 0.513482C5.47757 0.623011 5.41604 0.771563 5.41604 0.92646L5.41687 17.6664L1.46305 13.7126C1.35366 13.6032 1.2053 13.5418 1.05059 13.5418C0.895893 13.5418 0.747527 13.6032 0.638137 13.7126C0.528746 13.822 0.467292 13.9704 0.467292 14.1251C0.467292 14.2798 0.528747 14.4282 0.638137 14.5375L5.58762 19.487Z" fill="currentColor"/>
</svg>
