<svg viewBox="0 0 54 54" fill="none" xmlns="http://www.w3.org/2000/svg">
<rect x="1" y="1" width="51.7232" height="51.7232" rx="25.8616" fill="#DEAD5B" stroke="white" stroke-width="2"/>
<g clip-path="url(#clip0_224_276)">
<path fill-rule="evenodd" clip-rule="evenodd" d="M34.2133 26.9248C34.2133 27.1521 34.1231 27.3701 33.9623 27.5308C33.8016 27.6915 33.5836 27.7818 33.3564 27.7818H23.4273L27.1072 31.46C27.1869 31.5397 27.2501 31.6343 27.2932 31.7384C27.3363 31.8425 27.3585 31.9541 27.3585 32.0667C27.3585 32.1794 27.3363 32.291 27.2932 32.3951C27.2501 32.4992 27.1869 32.5938 27.1072 32.6735C27.0275 32.7532 26.9329 32.8164 26.8288 32.8595C26.7247 32.9026 26.6131 32.9248 26.5004 32.9248C26.3878 32.9248 26.2762 32.9026 26.1721 32.8595C26.068 32.8164 25.9734 32.7532 25.8937 32.6735L20.7518 27.5316C20.672 27.4519 20.6086 27.3574 20.5654 27.2533C20.5222 27.1491 20.5 27.0375 20.5 26.9248C20.5 26.8121 20.5222 26.7005 20.5654 26.5963C20.6086 26.4922 20.672 26.3977 20.7518 26.3181L25.8937 21.1761C26.0546 21.0152 26.2729 20.9248 26.5004 20.9248C26.728 20.9248 26.9463 21.0152 27.1072 21.1761C27.2681 21.337 27.3585 21.5553 27.3585 21.7829C27.3585 22.0105 27.2681 22.2287 27.1072 22.3896L23.4273 26.0678H33.3564C33.5836 26.0678 33.8016 26.1581 33.9623 26.3188C34.1231 26.4795 34.2133 26.6975 34.2133 26.9248Z" fill="white"/>
</g>
<defs>
<clipPath id="clip0_224_276">
<rect x="17" y="18.8633" width="18" height="18" rx="9" fill="white"/>
</clipPath>
</defs>
</svg>
