<svg viewBox="0 0 13 15" fill="none" xmlns="http://www.w3.org/2000/svg">
<path fill-rule="evenodd" clip-rule="evenodd" d="M6.80078 14.2124C6.57349 14.2124 6.35551 14.1221 6.1948 13.9614C6.03408 13.8006 5.94379 13.5827 5.94379 13.3554L5.94379 3.42631L2.2656 7.10622C2.18592 7.1859 2.09133 7.2491 1.98722 7.29223C1.88312 7.33535 1.77153 7.35754 1.65885 7.35754C1.54617 7.35754 1.43459 7.33535 1.33048 7.29223C1.22638 7.2491 1.13178 7.1859 1.0521 7.10622C0.972424 7.02654 0.909219 6.93195 0.866097 6.82784C0.822975 6.72374 0.800781 6.61216 0.800781 6.49947C0.800781 6.38679 0.822975 6.27521 0.866097 6.1711C0.909219 6.067 0.972424 5.9724 1.0521 5.89272L6.19403 0.750796C6.27364 0.670987 6.36821 0.607668 6.47233 0.564465C6.57644 0.521261 6.68806 0.499023 6.80078 0.499023C6.9135 0.499023 7.02512 0.521261 7.12924 0.564465C7.23335 0.607668 7.32792 0.670987 7.40753 0.750796L12.5495 5.89272C12.7104 6.05364 12.8008 6.2719 12.8008 6.49947C12.8008 6.72705 12.7104 6.9453 12.5495 7.10622C12.3885 7.26714 12.1703 7.35754 11.9427 7.35754C11.7151 7.35754 11.4969 7.26714 11.336 7.10622L7.65777 3.42631L7.65777 13.3554C7.65777 13.5827 7.56748 13.8006 7.40676 13.9614C7.24605 14.1221 7.02807 14.2124 6.80078 14.2124Z" fill="currentColor"/>
</svg>
