<svg width="10" height="9" viewBox="0 0 10 9" fill="none" xmlns="http://www.w3.org/2000/svg">
<path fill-rule="evenodd" clip-rule="evenodd" d="M9.50003 4.86302C9.50003 5.0122 9.44077 5.15527 9.33528 5.26076C9.22979 5.36625 9.08671 5.42552 8.93753 5.42552H2.4204L4.83578 7.83977C4.88808 7.89206 4.92956 7.95415 4.95787 8.02248C4.98617 8.09082 5.00074 8.16405 5.00074 8.23802C5.00074 8.31198 4.98617 8.38522 4.95787 8.45355C4.92956 8.52188 4.88808 8.58397 4.83578 8.63627C4.78348 8.68856 4.72139 8.73005 4.65306 8.75835C4.58473 8.78666 4.51149 8.80123 4.43753 8.80123C4.36357 8.80123 4.29033 8.78666 4.222 8.75835C4.15367 8.73005 4.09158 8.68856 4.03928 8.63627L0.664279 5.26127C0.611895 5.20901 0.570334 5.14694 0.541977 5.0786C0.51362 5.01026 0.499023 4.937 0.499023 4.86302C0.499023 4.78903 0.51362 4.71577 0.541977 4.64743C0.570334 4.57909 0.611895 4.51702 0.664279 4.46477L4.03928 1.08977C4.1449 0.984143 4.28816 0.924805 4.43753 0.924805C4.5869 0.924805 4.73016 0.984143 4.83578 1.08977C4.9414 1.19539 5.00074 1.33864 5.00074 1.48802C5.00074 1.63739 4.9414 1.78064 4.83578 1.88627L2.4204 4.30052H8.93753C9.08671 4.30052 9.22979 4.35978 9.33528 4.46527C9.44077 4.57076 9.50003 4.71383 9.50003 4.86302Z" fill="black"/>
</svg>
