<svg viewBox="0 0 13 12" fill="none" xmlns="http://www.w3.org/2000/svg">
<path fill-rule="evenodd" clip-rule="evenodd" d="M0 10.5C0 10.3508 0.0592633 10.2077 0.164753 10.1023C0.270242 9.99676 0.413316 9.9375 0.5625 9.9375H11.8125C11.9617 9.9375 12.1048 9.99676 12.2102 10.1023C12.3157 10.2077 12.375 10.3508 12.375 10.5C12.375 10.6492 12.3157 10.7923 12.2102 10.8977C12.1048 11.0032 11.9617 11.0625 11.8125 11.0625H0.5625C0.413316 11.0625 0.270242 11.0032 0.164753 10.8977C0.0592633 10.7923 0 10.6492 0 10.5ZM0 6C0 5.85082 0.0592633 5.70774 0.164753 5.60225C0.270242 5.49676 0.413316 5.4375 0.5625 5.4375H11.8125C11.9617 5.4375 12.1048 5.49676 12.2102 5.60225C12.3157 5.70774 12.375 5.85082 12.375 6C12.375 6.14918 12.3157 6.29226 12.2102 6.39775C12.1048 6.50324 11.9617 6.5625 11.8125 6.5625H0.5625C0.413316 6.5625 0.270242 6.50324 0.164753 6.39775C0.0592633 6.29226 0 6.14918 0 6ZM0 1.5C0 1.35082 0.0592633 1.20774 0.164753 1.10225C0.270242 0.996763 0.413316 0.9375 0.5625 0.9375H11.8125C11.9617 0.9375 12.1048 0.996763 12.2102 1.10225C12.3157 1.20774 12.375 1.35082 12.375 1.5C12.375 1.64918 12.3157 1.79226 12.2102 1.89775C12.1048 2.00324 11.9617 2.0625 11.8125 2.0625H0.5625C0.413316 2.0625 0.270242 2.00324 0.164753 1.89775C0.0592633 1.79226 0 1.64918 0 1.5Z" fill="currentColor"/>
</svg>
