<svg viewBox="0 0 18 18" fill="none" xmlns="http://www.w3.org/2000/svg">
<path fill-rule="evenodd" clip-rule="evenodd" d="M5.22678 1.85178C5.27903 1.7994 5.3411 1.75783 5.40944 1.72948C5.47778 1.70112 5.55104 1.68652 5.62503 1.68652C5.69902 1.68652 5.77228 1.70112 5.84062 1.72948C5.90895 1.75783 5.97103 1.7994 6.02328 1.85178L12.7733 8.60178C12.8257 8.65403 12.8672 8.7161 12.8956 8.78444C12.9239 8.85278 12.9385 8.92604 12.9385 9.00003C12.9385 9.07402 12.9239 9.14728 12.8956 9.21562C12.8672 9.28395 12.8257 9.34603 12.7733 9.39828L6.02328 16.1483C5.91766 16.2539 5.7744 16.3132 5.62503 16.3132C5.47566 16.3132 5.3324 16.2539 5.22678 16.1483C5.12116 16.0427 5.06182 15.8994 5.06182 15.75C5.06182 15.6007 5.12116 15.4574 5.22678 15.3518L11.5797 9.00003L5.22678 2.64828C5.17439 2.59603 5.13283 2.53396 5.10448 2.46562C5.07612 2.39728 5.06152 2.32402 5.06152 2.25003C5.06152 2.17604 5.07612 2.10278 5.10448 2.03444C5.13283 1.9661 5.17439 1.90403 5.22678 1.85178Z" fill="currentColor"/>
</svg>
