<svg width="16" height="16" viewBox="0 0 16 16" fill="none" xmlns="http://www.w3.org/2000/svg">
<g clip-path="url(#clip0_269_108)">
<path d="M2.70901 2.72266C2.21431 2.72266 1.73988 2.91917 1.39007 3.26898C1.04027 3.61878 0.84375 4.09322 0.84375 4.58792L0.84375 12.0583C0.846215 12.5514 1.04382 13.0234 1.39336 13.3712C1.7429 13.719 2.21593 13.9142 2.70901 13.9142H7.83848C7.96216 13.9142 8.08076 13.8651 8.16822 13.7776C8.25567 13.6902 8.3048 13.5716 8.3048 13.4479C8.3048 13.3242 8.25567 13.2056 8.16822 13.1182C8.08076 13.0307 7.96216 12.9816 7.83848 12.9816H2.70901C2.50372 12.9816 2.30415 12.9139 2.14126 12.789C1.97837 12.664 1.86126 12.4888 1.80809 12.2905L7.06813 9.05335L8.3048 9.7948L14.8332 5.87775V8.78476C14.8332 8.90843 14.8823 9.02704 14.9698 9.11449C15.0572 9.20194 15.1759 9.25107 15.2995 9.25107C15.4232 9.25107 15.5418 9.20194 15.6293 9.11449C15.7167 9.02704 15.7658 8.90843 15.7658 8.78476V4.58792C15.7658 4.09322 15.5693 3.61878 15.2195 3.26898C14.8697 2.91917 14.3953 2.72266 13.9006 2.72266H2.70901ZM6.16721 8.51243L1.77638 11.2143V5.87775L6.16721 8.51243ZM1.77638 4.7903V4.58792C1.77638 4.34057 1.87464 4.10335 2.04954 3.92845C2.22444 3.75355 2.46166 3.65529 2.70901 3.65529H13.9006C14.1479 3.65529 14.3851 3.75355 14.5601 3.92845C14.735 4.10335 14.8332 4.34057 14.8332 4.58792V4.7903L8.3048 8.70735L1.77638 4.7903Z" fill="black"/>
<path d="M14.1318 14.165C15.0738 14.165 15.6119 13.3657 15.6119 12.2764V12.0806C15.6119 10.5846 14.4983 9.25098 12.5211 9.25098H12.4885C10.5626 9.25098 9.23828 10.5194 9.23828 12.4518V12.6513C9.23828 14.6789 10.5794 15.7794 12.3701 15.7794H12.4111C12.9651 15.7794 13.3605 15.7104 13.5648 15.6162V14.9354C13.3363 15.038 12.9371 15.1032 12.4643 15.1032H12.4232C11.1791 15.1032 10.0254 14.3683 10.0254 12.6271V12.4807C10.0254 10.9353 11.0121 9.94019 12.4876 9.94019H12.5249C13.9565 9.94019 14.8415 10.9195 14.8415 12.1095V12.2195C14.8415 13.1289 14.5394 13.5159 14.2456 13.5159C14.0292 13.5159 13.8632 13.3779 13.8632 13.1242V11.0817H13.0182V11.6124H12.9903C12.9119 11.3345 12.647 11.0248 12.1005 11.0248C11.3749 11.0248 10.9263 11.5425 10.9263 12.3305V12.823C10.9263 13.6549 11.3833 14.1603 12.1015 14.1603C12.5407 14.1603 12.9371 13.9486 13.0471 13.5607H13.0872C13.1973 13.9524 13.6627 14.165 14.1318 14.165ZM11.8441 12.684V12.4723C11.8441 11.9631 12.0558 11.7346 12.3784 11.7346C12.6554 11.7346 12.9119 11.9136 12.9119 12.3949V12.7372C12.9119 13.2715 12.676 13.431 12.3859 13.431C12.0558 13.431 11.8441 13.2305 11.8441 12.6849V12.684Z" fill="currentColor"/>
</g>
<defs>
<clipPath id="clip0_269_108">
<rect width="14.9221" height="14.9221" fill="white" transform="translate(0.84375 0.857422)"/>
</clipPath>
</defs>
</svg>
