<svg width="11" height="11" viewBox="0 0 11 11" fill="none" xmlns="http://www.w3.org/2000/svg">
<g clip-path="url(#clip0_361_23)">
<path d="M-0.000244141 2.75C-0.000244141 2.38533 0.144622 2.03559 0.402484 1.77773C0.660347 1.51987 1.01008 1.375 1.37476 1.375H9.62476C9.98943 1.375 10.3392 1.51987 10.597 1.77773C10.8549 2.03559 10.9998 2.38533 10.9998 2.75V8.25C10.9998 8.61467 10.8549 8.96441 10.597 9.22227C10.3392 9.48013 9.98943 9.625 9.62476 9.625H1.37476C1.01008 9.625 0.660347 9.48013 0.402484 9.22227C0.144622 8.96441 -0.000244141 8.61467 -0.000244141 8.25V2.75ZM1.37476 2.0625C1.19242 2.0625 1.01755 2.13493 0.88862 2.26386C0.759689 2.3928 0.687256 2.56766 0.687256 2.75V2.89919L5.49976 5.78669L10.3123 2.89919V2.75C10.3123 2.56766 10.2398 2.3928 10.1109 2.26386C9.98196 2.13493 9.80709 2.0625 9.62476 2.0625H1.37476ZM10.3123 3.70081L7.07551 5.643L10.3123 7.63469V3.70081ZM10.2889 8.42806L6.41138 6.04175L5.49976 6.58831L4.58813 6.04175L0.710631 8.42738C0.749699 8.57367 0.835974 8.70298 0.956061 8.79522C1.07615 8.88746 1.22333 8.93748 1.37476 8.9375H9.62476C9.77609 8.93752 9.9232 8.8876 10.0433 8.7955C10.1634 8.70339 10.2497 8.57423 10.2889 8.42806ZM0.687256 7.63469L3.92401 5.643L0.687256 3.70081V7.63469Z" fill="black"/>
</g>
<defs>
<clipPath id="clip0_361_23">
<rect width="11" height="11" fill="white" transform="translate(-0.000244141)"/>
</clipPath>
</defs>
</svg>
