<svg width="16" height="16" viewBox="0 0 12 12" fill="none" xmlns="http://www.w3.org/2000/svg">
<g clip-path="url(#clip0_361_11)">
<path d="M6.1666 1.6495C6.06127 1.59923 5.94376 1.57295 5.82443 1.57295C5.70509 1.57295 5.58759 1.59923 5.48226 1.6495L1.11412 3.73737C0.997652 3.79295 0.900228 3.87585 0.832265 3.97721C0.764302 4.07857 0.728355 4.19458 0.728267 4.31283V4.84589L4.9144 7.09687L5.82443 6.60753L6.73446 7.09687L10.9206 4.84589V4.31283C10.9205 4.19458 10.8846 4.07857 10.8166 3.97721C10.7486 3.87585 10.6512 3.79295 10.5347 3.73737L6.1666 1.6495ZM10.9206 5.60666L7.4421 7.47726L10.9206 9.34785V5.60666ZM10.8951 10.0956L5.82443 7.36764L0.753748 10.0949C0.795627 10.2332 0.88711 10.3552 1.01408 10.4422C1.14105 10.5293 1.29645 10.5764 1.45629 10.5764H10.1926C10.3524 10.5764 10.5078 10.5293 10.6348 10.4422C10.7617 10.3552 10.8532 10.2338 10.8951 10.0956ZM0.728267 9.3472L4.20676 7.4766L0.728267 5.60666V9.3472ZM5.13936 1.07338C5.35021 0.972624 5.58548 0.919922 5.82443 0.919922C6.06338 0.919922 6.29865 0.972624 6.5095 1.07338L10.8776 3.16125C11.1105 3.27254 11.3053 3.43849 11.4411 3.64133C11.5769 3.84417 11.6486 4.07628 11.6486 4.31283V9.92397C11.6486 10.2701 11.4952 10.602 11.2221 10.8467C10.9491 11.0914 10.5787 11.2289 10.1926 11.2289H1.45629C1.07012 11.2289 0.699772 11.0914 0.42671 10.8467C0.153649 10.602 0.000244148 10.2701 0.000244148 9.92397V4.31283C0.000217752 4.07628 0.0719404 3.84417 0.207741 3.64133C0.343542 3.43849 0.538312 3.27254 0.771221 3.16125L5.13936 1.07338Z" fill="currentColor"/>
</g>
<defs>
<clipPath id="clip0_361_11">
<rect width="11.6484" height="10.4393" fill="white" transform="translate(-0.000244141 0.789062)"/>
</clipPath>
</defs>
</svg>
