<svg width="16" height="16" viewBox="0 0 12 12" fill="none" xmlns="http://www.w3.org/2000/svg">
<g clip-path="url(#clip0_361_17)">
<path d="M7.95239 1.19434C8.13473 1.19434 8.3096 1.26677 8.43853 1.3957C8.56746 1.52463 8.63989 1.6995 8.63989 1.88184V10.1318C8.63989 10.3142 8.56746 10.489 8.43853 10.618C8.3096 10.7469 8.13473 10.8193 7.95239 10.8193H3.82739C3.64506 10.8193 3.47019 10.7469 3.34126 10.618C3.21233 10.489 3.13989 10.3142 3.13989 10.1318V1.88184C3.13989 1.6995 3.21233 1.52463 3.34126 1.3957C3.47019 1.26677 3.64506 1.19434 3.82739 1.19434H7.95239ZM3.82739 0.506836C3.46272 0.506836 3.11298 0.651702 2.85512 0.909564C2.59726 1.16743 2.45239 1.51716 2.45239 1.88184V10.1318C2.45239 10.4965 2.59726 10.8462 2.85512 11.1041C3.11298 11.362 3.46272 11.5068 3.82739 11.5068H7.95239C8.31706 11.5068 8.6668 11.362 8.92466 11.1041C9.18253 10.8462 9.32739 10.4965 9.32739 10.1318V1.88184C9.32739 1.51716 9.18253 1.16743 8.92466 0.909564C8.6668 0.651702 8.31706 0.506836 7.95239 0.506836H3.82739Z" fill="currentColor"/>
<path d="M5.88965 10.1318C6.07198 10.1318 6.24685 10.0594 6.37578 9.93047C6.50472 9.80154 6.57715 9.62667 6.57715 9.44434C6.57715 9.262 6.50472 9.08713 6.37578 8.9582C6.24685 8.82927 6.07198 8.75684 5.88965 8.75684C5.70731 8.75684 5.53244 8.82927 5.40351 8.9582C5.27458 9.08713 5.20215 9.262 5.20215 9.44434C5.20215 9.62667 5.27458 9.80154 5.40351 9.93047C5.53244 10.0594 5.70731 10.1318 5.88965 10.1318Z" fill="currentColor"/>
</g>
<defs>
<clipPath id="clip0_361_17">
<rect width="11" height="11" fill="white" transform="translate(0.390381 0.506836)"/>
</clipPath>
</defs>
</svg>
