<svg viewBox="0 0 16 16" fill="none" xmlns="http://www.w3.org/2000/svg">
<path fill-rule="evenodd" clip-rule="evenodd" d="M10.8571 0C11.0087 0 11.154 0.0602039 11.2612 0.167368C11.3684 0.274531 11.4286 0.419876 11.4286 0.571429V5.14286C11.4286 5.29441 11.3684 5.43975 11.2612 5.54692C11.154 5.65408 11.0087 5.71429 10.8571 5.71429C10.7056 5.71429 10.5602 5.65408 10.4531 5.54692C10.3459 5.43975 10.2857 5.29441 10.2857 5.14286V3.42857H0.571429C0.419876 3.42857 0.274531 3.36837 0.167368 3.2612C0.0602039 3.15404 0 3.0087 0 2.85714C0 2.70559 0.0602039 2.56025 0.167368 2.45308C0.274531 2.34592 0.419876 2.28571 0.571429 2.28571H10.2857V0.571429C10.2857 0.419876 10.3459 0.274531 10.4531 0.167368C10.5602 0.0602039 10.7056 0 10.8571 0ZM12.5714 2.85714C12.5714 2.70559 12.6316 2.56025 12.7388 2.45308C12.846 2.34592 12.9913 2.28571 13.1429 2.28571H15.4286C15.5801 2.28571 15.7255 2.34592 15.8326 2.45308C15.9398 2.56025 16 2.70559 16 2.85714C16 3.0087 15.9398 3.15404 15.8326 3.2612C15.7255 3.36837 15.5801 3.42857 15.4286 3.42857H13.1429C12.9913 3.42857 12.846 3.36837 12.7388 3.2612C12.6316 3.15404 12.5714 3.0087 12.5714 2.85714ZM5.14286 5.14286C5.29441 5.14286 5.43975 5.20306 5.54692 5.31023C5.65408 5.41739 5.71429 5.56273 5.71429 5.71429V7.42857H15.4286C15.5801 7.42857 15.7255 7.48878 15.8326 7.59594C15.9398 7.7031 16 7.84845 16 8C16 8.15155 15.9398 8.2969 15.8326 8.40406C15.7255 8.51123 15.5801 8.57143 15.4286 8.57143H5.71429V10.2857C5.71429 10.4373 5.65408 10.5826 5.54692 10.6898C5.43975 10.7969 5.29441 10.8571 5.14286 10.8571C4.9913 10.8571 4.84596 10.7969 4.7388 10.6898C4.63163 10.5826 4.57143 10.4373 4.57143 10.2857V5.71429C4.57143 5.56273 4.63163 5.41739 4.7388 5.31023C4.84596 5.20306 4.9913 5.14286 5.14286 5.14286ZM0 8C0 7.84845 0.0602039 7.7031 0.167368 7.59594C0.274531 7.48878 0.419876 7.42857 0.571429 7.42857H2.85714C3.0087 7.42857 3.15404 7.48878 3.2612 7.59594C3.36837 7.7031 3.42857 7.84845 3.42857 8C3.42857 8.15155 3.36837 8.2969 3.2612 8.40406C3.15404 8.51123 3.0087 8.57143 2.85714 8.57143H0.571429C0.419876 8.57143 0.274531 8.51123 0.167368 8.40406C0.0602039 8.2969 0 8.15155 0 8ZM10.8571 10.2857C11.0087 10.2857 11.154 10.3459 11.2612 10.4531C11.3684 10.5602 11.4286 10.7056 11.4286 10.8571V15.4286C11.4286 15.5801 11.3684 15.7255 11.2612 15.8326C11.154 15.9398 11.0087 16 10.8571 16C10.7056 16 10.5602 15.9398 10.4531 15.8326C10.3459 15.7255 10.2857 15.5801 10.2857 15.4286V13.7143H0.571429C0.419876 13.7143 0.274531 13.6541 0.167368 13.5469C0.0602039 13.4398 0 13.2944 0 13.1429C0 12.9913 0.0602039 12.846 0.167368 12.7388C0.274531 12.6316 0.419876 12.5714 0.571429 12.5714H10.2857V10.8571C10.2857 10.7056 10.3459 10.5602 10.4531 10.4531C10.5602 10.3459 10.7056 10.2857 10.8571 10.2857ZM12.5714 13.1429C12.5714 12.9913 12.6316 12.846 12.7388 12.7388C12.846 12.6316 12.9913 12.5714 13.1429 12.5714H15.4286C15.5801 12.5714 15.7255 12.6316 15.8326 12.7388C15.9398 12.846 16 12.9913 16 13.1429C16 13.2944 15.9398 13.4398 15.8326 13.5469C15.7255 13.6541 15.5801 13.7143 15.4286 13.7143H13.1429C12.9913 13.7143 12.846 13.6541 12.7388 13.5469C12.6316 13.4398 12.5714 13.2944 12.5714 13.1429Z" fill="currentColor"/>
</svg>
