<svg width="18" height="17" viewBox="0 0 18 17" fill="none" xmlns="http://www.w3.org/2000/svg">
<path d="M8.92051 8.56797C9.72945 8.56797 10.5053 8.24662 11.0773 7.67462C11.6493 7.10261 11.9706 6.32681 11.9706 5.51787C11.9706 4.70894 11.6493 3.93313 11.0773 3.36113C10.5053 2.78912 9.72945 2.46777 8.92051 2.46777C8.11158 2.46777 7.33577 2.78912 6.76377 3.36113C6.19176 3.93313 5.87041 4.70894 5.87041 5.51787C5.87041 6.32681 6.19176 7.10261 6.76377 7.67462C7.33577 8.24662 8.11158 8.56797 8.92051 8.56797ZM10.9539 5.51787C10.9539 6.05716 10.7397 6.57437 10.3583 6.9557C9.97701 7.33704 9.4598 7.55127 8.92051 7.55127C8.38122 7.55127 7.86402 7.33704 7.48268 6.9557C7.10134 6.57437 6.88711 6.05716 6.88711 5.51787C6.88711 4.97858 7.10134 4.46138 7.48268 4.08004C7.86402 3.69871 8.38122 3.48447 8.92051 3.48447C9.4598 3.48447 9.97701 3.69871 10.3583 4.08004C10.7397 4.46138 10.9539 4.97858 10.9539 5.51787ZM15.0207 13.6515C15.0207 14.6682 14.004 14.6682 14.004 14.6682H3.83701C3.83701 14.6682 2.82031 14.6682 2.82031 13.6515C2.82031 12.6348 3.83701 9.58467 8.92051 9.58467C14.004 9.58467 15.0207 12.6348 15.0207 13.6515ZM14.004 13.6474C14.003 13.3973 13.8474 12.6449 13.1581 11.9556C12.4952 11.2927 11.2477 10.6014 8.92051 10.6014C6.59329 10.6014 5.3458 11.2927 4.68291 11.9556C3.99358 12.6449 3.83905 13.3973 3.83701 13.6474H14.004Z" fill="currentColor"/>
</svg>
